<svg width="270" height="270" viewBox="0 0 270 270" fill="none" xmlns="http://www.w3.org/2000/svg">
<g clip-path="url(#clip0_1304_332)">
<g opacity="0.9">
<path d="M42.273 102.743C39.7342 104.09 37.0125 105.06 34.1937 105.622C31.3779 106.195 28.5126 106.49 25.6391 106.501C22.7249 106.531 19.8285 106.044 17.0846 105.062C14.5508 104.172 12.2345 102.755 10.2884 100.904C8.37122 99.0415 6.84866 96.8122 5.81157 94.3488C4.72272 91.6007 4.17953 88.6669 4.21234 85.7111C4.18739 82.7568 4.73031 79.8252 5.81157 77.0757C6.8294 74.6044 8.38656 72.3916 10.3692 70.5992C12.3153 68.7484 14.6316 67.3311 17.1654 66.4408C19.9068 65.4525 22.8036 64.9652 25.7175 65.0019C28.6599 64.9833 31.5915 65.3598 34.4337 66.1212C37.0591 66.846 39.4721 68.1906 41.4698 70.042L35.3165 76.7561C34.1659 75.5871 32.8108 74.6387 31.3184 73.9581C29.5341 73.2678 27.6298 72.9414 25.7175 72.9981C23.9909 72.9765 22.2776 73.303 20.6799 73.9581C19.212 74.5711 17.8796 75.4679 16.759 76.5969C15.6355 77.7498 14.7902 79.1441 14.2877 80.6734C13.7048 82.3165 13.4075 84.0473 13.4085 85.7907C13.4005 87.5347 13.6981 89.2667 14.2877 90.908C14.843 92.3907 15.6852 93.7493 16.7661 94.9061C17.8867 96.0351 19.2191 96.9318 20.687 97.5449C22.2847 98.2 23.998 98.5265 25.7247 98.5049C27.3727 98.5269 29.0153 98.3116 30.602 97.8657C31.73 97.5359 32.8269 97.1077 33.88 96.5861V90.1904H26.7631V82.1111H42.1934V102.743H42.273Z" fill="#080000"/>
<path d="M49.5449 66.043H58.2611V97.5463H74.4125V105.626H49.5449V66.043Z" fill="#080000"/>
<path d="M75.6915 85.7888C75.6666 82.8345 76.2095 79.9029 77.2908 77.1534C78.2788 74.663 79.8084 72.4236 81.7688 70.5973C83.7149 68.7465 86.0312 67.3292 88.5649 66.4389C94.1066 64.5204 100.132 64.5204 105.674 66.4389C108.208 67.3292 110.524 68.7465 112.47 70.5973C114.388 72.4598 115.911 74.6895 116.948 77.1534C118.075 79.8897 118.619 82.8306 118.547 85.7888C118.572 88.7431 118.029 91.6747 116.948 94.4241C115.94 96.9038 114.413 99.1391 112.47 100.98C110.524 102.831 108.208 104.248 105.674 105.139C100.132 107.057 94.1066 107.057 88.5649 105.139C86.0312 104.248 83.7149 102.831 81.7688 100.98C79.851 99.1178 78.3281 96.888 77.2908 94.4241C76.1788 91.6836 75.6347 88.7458 75.6915 85.7888ZM84.7213 85.7888C84.7134 87.5328 85.0109 89.2647 85.6005 90.9061C86.1558 92.3887 86.9981 93.7473 88.079 94.9041C89.1996 96.0332 90.532 96.9299 91.9998 97.543C95.2364 98.8225 98.8386 98.8225 102.075 97.543C103.543 96.9299 104.875 96.0332 105.996 94.9041C107.104 93.7682 107.95 92.4036 108.474 90.9061C109.064 89.2647 109.362 87.5328 109.354 85.7888C109.355 84.0454 109.057 82.3146 108.474 80.6715C107.92 79.1647 107.078 77.7798 105.996 76.5938C104.875 75.4648 103.543 74.568 102.075 73.955C98.8386 72.6755 95.2364 72.6755 91.9998 73.955C90.532 74.568 89.1996 75.4648 88.079 76.5938C86.9528 77.7463 86.105 79.1411 85.6005 80.6715C85.0177 82.3146 84.7203 84.0454 84.7213 85.7888Z" fill="#080000"/>
<path d="M123.67 66.043H138.383C140.122 66.0597 141.858 66.1931 143.579 66.4422C145.197 66.6427 146.766 67.1299 148.213 67.881C149.563 68.6053 150.716 69.6482 151.572 70.9191C152.51 72.484 152.956 74.2946 152.852 76.116C152.906 78.1385 152.256 80.1172 151.012 81.7133C149.709 83.2252 147.983 84.3116 146.056 84.8321V84.9117C147.287 85.0655 148.48 85.4449 149.574 86.0309C150.607 86.5393 151.531 87.2457 152.292 88.1102C153.089 88.9546 153.69 89.9649 154.052 91.0686C154.471 92.222 154.687 93.4392 154.691 94.6663C154.749 96.4935 154.277 98.2985 153.332 99.8632C152.458 101.231 151.281 102.38 149.893 103.222C148.405 104.094 146.785 104.715 145.096 105.061C143.363 105.445 141.592 105.633 139.818 105.621H123.67V66.043ZM132.386 81.7952H138.703C139.377 81.7951 140.047 81.7153 140.702 81.5576C141.319 81.4013 141.912 81.159 142.461 80.8376C143.003 80.5091 143.446 80.0393 143.741 79.4784C144.075 78.8668 144.24 78.1766 144.216 77.4799C144.24 76.7978 144.073 76.1226 143.735 75.5297C143.396 74.9368 142.9 74.4495 142.301 74.1223C141.697 73.8144 141.05 73.5989 140.382 73.4831C139.698 73.3502 139 73.2964 138.303 73.3227H132.386V81.7952ZM132.386 98.1915H140.228C140.927 98.187 141.624 98.1073 142.307 97.9538C142.97 97.8205 143.597 97.5479 144.146 97.1542C144.697 96.7778 145.161 96.287 145.505 95.7154C145.869 95.0535 146.061 94.3115 146.065 93.5566C146.11 92.747 145.854 91.9494 145.345 91.3181C144.887 90.7379 144.278 90.2952 143.585 90.0385C142.841 89.7313 142.062 89.5166 141.266 89.3993C140.467 89.3197 139.667 89.2389 138.947 89.2389H132.391L132.386 98.1915Z" fill="#080000"/>
<path d="M172.046 66.043H179.242L196.433 105.622H186.6L183.162 97.2267H167.81L164.532 105.622H154.937L172.046 66.043ZM175.404 77.4776L170.608 89.7902H180.283L175.404 77.4776Z" fill="#080000"/>
<path d="M199.959 66.043H208.674V97.5463H224.827V105.626H199.959V66.043Z" fill="#080000"/>
<path d="M4.21094 114.644H16.0447L32.8366 142.149H32.9162V114.644H41.6371V154.223H30.2774L13.0863 126.078H13.0031V154.223H4.21094V114.644Z" fill="#080000"/>
<path d="M49.3887 114.644H76.2547V122.723H58.1048V130.079H75.2139V138.158H58.1048V146.237H77.2943V154.317H49.3887V114.644Z" fill="#080000"/>
<path d="M79.458 114.644H88.9726L95.2899 139.99H95.3695L103.606 114.644H111.685L120.002 140.71H120.081L126.714 114.644H135.506L123.912 154.223H116.159L107.443 126.881H107.364L98.6475 154.227H91.1314L79.458 114.644Z" fill="#080000"/>
<path d="M14.8719 187.928L0 165.3H10.875L19.1919 180.092L28.0672 165.3H38.3767L23.5084 188.009V204.8H14.8719V187.928Z" fill="#080000"/>
<path d="M36.1366 185.055C36.1116 182.101 36.6545 179.169 37.7358 176.42C38.744 173.94 40.2708 171.705 42.2139 169.863C44.1599 168.013 46.4762 166.595 49.01 165.705C54.5517 163.786 60.5774 163.786 66.1191 165.705C68.6529 166.595 70.9691 168.013 72.9152 169.863C74.833 171.726 76.356 173.956 77.3933 176.42C78.4818 179.167 79.025 182.1 78.9925 185.055C79.0174 188.009 78.4745 190.941 77.3933 193.69C76.3851 196.17 74.8582 198.405 72.9152 200.246C70.9691 202.097 68.6529 203.514 66.1191 204.405C60.5774 206.323 54.5517 206.323 49.01 204.405C46.4762 203.514 44.1599 202.097 42.2139 200.246C40.2961 198.384 38.7731 196.154 37.7358 193.69C36.6545 190.941 36.1116 188.009 36.1366 185.055ZM45.1664 185.055C45.1584 186.799 45.456 188.531 46.0456 190.172C46.5813 191.668 47.4285 193.033 48.5313 194.178C49.6341 195.322 50.9672 196.219 52.4425 196.809C55.6791 198.089 59.2813 198.089 62.5178 196.809C63.9857 196.196 65.3181 195.299 66.4387 194.17C67.5466 193.034 68.3926 191.67 68.9171 190.172C69.5068 188.531 69.8043 186.799 69.7963 185.055C69.7974 183.311 69.5 181.581 68.9171 179.938C68.3627 178.431 67.521 177.046 66.4387 175.86C65.3181 174.731 63.9857 173.834 62.5178 173.221C59.2812 171.942 55.6791 171.942 52.4425 173.221C50.9746 173.834 49.6422 174.731 48.5217 175.86C47.3954 177.012 46.5476 178.407 46.0432 179.938C45.4611 181.581 45.1646 183.312 45.1664 185.055Z" fill="#080000"/>
<path d="M84.1924 165.301H99.4646C101.398 165.281 103.328 165.469 105.221 165.861C106.898 166.205 108.498 166.855 109.939 167.78C111.31 168.729 112.434 169.992 113.217 171.463C114.077 173.256 114.488 175.232 114.416 177.219C114.499 179.764 113.74 182.265 112.257 184.335C110.689 186.352 108.392 187.674 105.86 188.018L115.936 204.81H105.46L97.2262 188.969H92.9085V204.801H84.1924V165.301ZM92.9085 181.613H98.0258C98.8254 181.613 99.625 181.613 100.504 181.533C101.319 181.468 102.124 181.309 102.903 181.058C103.596 180.802 104.205 180.359 104.663 179.779C105.183 179.061 105.438 178.185 105.383 177.3C105.424 176.454 105.201 175.615 104.744 174.901C104.328 174.326 103.779 173.86 103.144 173.542C102.47 173.199 101.738 172.982 100.985 172.903C100.186 172.823 99.3862 172.743 98.5866 172.743H92.9097V181.618L92.9085 181.613Z" fill="#080000"/>
<path d="M120.192 165.3H128.909V181.696L144.26 165.3H155.614L138.023 183.691L157.133 204.88H144.979L128.907 186.092V204.803H120.192V165.3Z" fill="#080000"/>
<path d="M160.165 165.3H187.031V173.379H168.881V180.735H185.99V188.814H168.881V196.81H188.072V204.806H160.165V165.3Z" fill="#080000"/>
<path d="M194.387 165.301H209.659C211.592 165.281 213.522 165.469 215.415 165.861C217.093 166.205 218.692 166.855 220.134 167.78C221.504 168.729 222.628 169.992 223.412 171.463C224.271 173.256 224.682 175.232 224.61 177.219C224.693 179.764 223.934 182.265 222.452 184.335C220.883 186.352 218.587 187.674 216.055 188.018L226.13 204.729H215.654L207.418 188.898H203.1V204.809H194.387V165.301ZM203.103 181.613H208.22C209.02 181.613 209.819 181.613 210.699 181.533C211.514 181.468 212.319 181.309 213.097 181.058C213.79 180.802 214.399 180.359 214.857 179.779C215.378 179.061 215.632 178.185 215.577 177.3C215.618 176.454 215.395 175.615 214.938 174.901C214.522 174.326 213.973 173.86 213.339 173.542C212.664 173.199 211.932 172.982 211.18 172.903C210.38 172.823 209.581 172.743 208.781 172.743H203.104L203.103 181.613Z" fill="#080000"/>
<path d="M269.999 119.77L262.883 112.653L248.251 127.365L233.538 112.653L226.502 119.77L241.135 134.403L226.502 149.114L233.538 156.15L248.251 141.517L262.884 156.15L270.001 149.114L255.287 134.402L269.999 119.77Z" fill="#EB0011"/>
<path d="M224.34 130.527H140.957V140.453H224.34V130.527Z" fill="#080000"/>
</g>
</g>
<defs>
<clipPath id="clip0_1304_332">
<rect width="270" height="270" fill="white"/>
</clipPath>
</defs>
</svg>
