<svg width="28" height="30" viewBox="0 0 28 30" fill="none" xmlns="http://www.w3.org/2000/svg">
<path fill-rule="evenodd" clip-rule="evenodd" d="M23.9274 16.7111C23.5333 12.0039 19.5916 8.31036 14.7777 8.31036C11.9733 8.31036 9.4597 9.56951 7.77319 11.5519V7.07059C9.77632 5.72104 12.1865 4.93327 14.7777 4.93327C21.4526 4.93327 26.9127 10.1442 27.3069 16.7111H23.9274Z" fill="#036CB5"/>
<path fill-rule="evenodd" clip-rule="evenodd" d="M15.5273 26.6229C19.973 26.2613 23.5269 22.7357 23.9211 18.3061H27.307C26.8935 24.6018 21.8404 29.6319 15.5273 30V26.6229Z" fill="#29ADB2"/>
<path fill-rule="evenodd" clip-rule="evenodd" d="M3.91579 9.53674e-07L7.82511 5.17219H5.60229V8.92379V17.3762V17.4279V17.5118C5.61521 22.2772 9.27253 26.1902 13.9314 26.61V29.9935C7.4051 29.5609 2.24221 24.1433 2.22282 17.5118V17.4795V5.17219H0L3.91579 9.53674e-07Z" fill="#036CB5"/>
<path fill-rule="evenodd" clip-rule="evenodd" d="M14.7702 11.2161C15.8234 11.2161 16.6764 12.0684 16.6764 13.1209C16.6764 13.8312 16.2822 14.4511 15.7007 14.7804C15.9721 14.8773 16.2305 14.987 16.4696 15.1162C17.1287 14.535 17.4647 13.8506 17.413 12.7077C17.1029 12.585 16.8896 12.288 16.8896 11.9393C16.8896 11.4873 17.2579 11.1192 17.7103 11.1192C18.1626 11.1192 18.5309 11.4873 18.5309 11.9393C18.5309 12.2234 18.3887 12.4752 18.169 12.6237C18.2595 14.0378 17.8912 14.8644 17.1545 15.5488C17.4841 15.8006 17.7813 16.0912 18.0463 16.4205C18.6924 17.2212 19.1383 18.2415 19.3903 19.4812C19.7586 19.5845 20.0365 19.9332 20.0365 20.34C20.0365 20.8308 19.6358 21.2247 19.1448 21.2247C18.6537 21.2247 18.253 20.8308 18.253 20.34C18.253 20.0301 18.4081 19.7653 18.6407 19.6039C18.4146 18.4933 18.0204 17.5893 17.4582 16.8919C17.1933 16.5626 16.8832 16.2785 16.5407 16.0396C16.3145 16.1945 16.069 16.3495 15.7976 16.5109C16.405 16.8596 17.0253 17.4408 17.4195 18.235C18.4275 20.269 17.4324 22.6194 15.6037 23.9108C15.2613 24.1562 14.9576 24.2595 14.7702 24.2724C14.5763 24.2595 14.2726 24.1562 13.9302 23.9108C12.1015 22.6194 11.1064 20.269 12.1144 18.235C12.5086 17.4408 13.1289 16.8596 13.7363 16.5109C13.4649 16.3495 13.2194 16.1945 12.9932 16.0396C12.6507 16.2785 12.3406 16.5626 12.0757 16.8919C11.5135 17.5893 11.1193 18.4933 10.8932 19.6039C11.1258 19.7653 11.2809 20.0301 11.2809 20.34C11.2809 20.8308 10.8802 21.2247 10.3892 21.2247C9.89807 21.2247 9.50391 20.8308 9.50391 20.34C9.50391 19.9332 9.7753 19.591 10.1436 19.4812C10.3956 18.2415 10.8415 17.2212 11.4876 16.4205C11.7526 16.0912 12.0498 15.8006 12.3794 15.5488C11.6427 14.8644 11.2744 14.0378 11.3649 12.6237C11.1452 12.4752 11.003 12.2234 11.003 11.9393C11.003 11.4873 11.3713 11.1192 11.8237 11.1192C12.276 11.1192 12.6443 11.4873 12.6443 11.9393C12.6443 12.288 12.4311 12.585 12.1209 12.7077C12.0692 13.8506 12.4052 14.535 13.0643 15.1162C13.3034 14.987 13.5618 14.8773 13.8332 14.7804C13.2517 14.4511 12.8575 13.8312 12.8575 13.1209C12.8575 12.0684 13.7105 11.2161 14.7702 11.2161Z" fill="#29ADB2"/>
</svg>
