<svg width="244" height="50" viewBox="0 0 244 50" fill="none" xmlns="http://www.w3.org/2000/svg">
<path d="M60.7296 18.7151L63.2819 31.1451C63.4866 32.0491 63.745 33.5773 64.0466 35.719H64.1866C64.305 34.3199 64.5312 32.867 64.8543 31.3496L65.5543 28.0026C65.8559 26.722 66.362 25.8718 67.0836 25.4628C67.8159 25.0646 68.6882 24.8602 69.7113 24.8602C70.1744 24.8602 70.5837 24.8924 70.9283 24.957C71.2837 25.0324 71.6606 25.1615 72.0699 25.3444C72.4791 25.5274 72.8237 25.8503 73.1145 26.3023C73.4053 26.765 73.6207 27.3246 73.7607 28.0026L74.4607 31.3496C74.7407 32.4904 74.9776 33.9432 75.1607 35.719H75.3007C75.6238 33.319 75.8607 31.7909 76.0007 31.1451L78.65 18.7151H84.7671L79.3501 43.1555H72.296L69.9914 31.2097C69.9375 31.0268 69.8513 30.9299 69.7113 30.9299C69.5283 30.9299 69.4098 31.0268 69.3559 31.2097L67.0513 43.1555H60.1049L54.5479 18.7151H60.7296ZM95.9567 18.7151L101.578 34.9872L107.168 18.7151H114.965V43.1555H109.332V32.2213C109.332 31.0375 109.526 28.6376 109.892 25.0324H109.828L103.571 43.1555H98.7783L92.5643 25.0324H92.4889C92.8227 27.7336 92.9843 30.1335 92.9843 32.2213V43.1555H87.7718V18.7151H95.9567Z" fill="#29ADB2"/>
<path d="M130.603 43.1555V18.7151H140.769C143.192 18.7151 145.249 19.4684 146.929 20.9859C148.48 22.5141 149.266 24.5373 149.266 27.0556C149.266 29.3802 148.674 31.2205 147.478 32.5765C145.928 34.4383 143.688 35.3638 140.769 35.3638H136.407V43.1555H130.603ZM136.407 23.8055V30.3057H140.769C141.727 30.3057 142.406 30.0582 142.804 29.5739C143.224 29.0789 143.429 28.2394 143.429 27.0556C143.429 25.818 143.149 24.9355 142.589 24.3974C142.051 24.01 141.447 23.8055 140.769 23.8055H136.407ZM166.777 33.4159L171.527 43.1555H164.785L161.425 34.8042H157.796V43.1555H151.926V18.7151H162.685C165.248 18.7151 167.294 19.4684 168.813 20.9859C170.342 22.4926 171.064 24.4835 170.967 26.948C170.924 28.6269 170.493 30.0044 169.685 31.0698C168.888 32.146 167.908 32.9209 166.777 33.4159ZM157.796 23.8055V29.9506H162.265C163.17 29.9506 163.88 29.6708 164.397 29.1004C164.903 28.53 165.151 27.7767 165.13 26.8511C165.13 24.8171 164.257 23.8055 162.513 23.8055H157.796ZM194.94 25.9794C195.284 27.4215 195.457 29.0789 195.457 30.973C195.457 32.8563 195.295 34.5136 194.95 35.945C194.617 37.3763 194.057 38.6678 193.26 39.8408C192.463 41.0031 191.332 41.8963 189.867 42.5098C188.403 43.1232 186.604 43.4353 184.493 43.4353C182.372 43.4353 180.573 43.1232 179.108 42.5098C177.644 41.8963 176.502 41.0031 175.705 39.8408C174.898 38.6678 174.327 37.3763 173.993 35.945C173.648 34.5136 173.476 32.8563 173.476 30.973C173.476 29.0789 173.659 27.4215 174.004 25.9794C174.359 24.5266 174.93 23.2244 175.738 22.0513C176.535 20.8675 177.676 19.9743 179.141 19.3608C180.605 18.7366 182.393 18.4353 184.493 18.4353C186.583 18.4353 188.37 18.7366 189.835 19.3608C191.3 19.9743 192.43 20.8675 193.227 22.0513C194.013 23.2244 194.584 24.5266 194.94 25.9794ZM186.884 23.9992C186.216 23.7087 185.419 23.5688 184.493 23.5688C183.556 23.5688 182.759 23.7087 182.092 23.9992C181.435 24.2898 180.918 24.6449 180.562 25.0647C180.196 25.4844 179.916 26.0548 179.722 26.765C179.518 27.4753 179.399 28.1318 179.356 28.7345C179.302 29.3372 179.281 30.0797 179.281 30.973C179.281 31.8554 179.302 32.5873 179.356 33.1684C179.399 33.7496 179.518 34.406 179.722 35.1271C179.916 35.8481 180.185 36.4185 180.541 36.8382C180.885 37.2579 181.402 37.6131 182.081 37.9037C182.749 38.1942 183.556 38.3341 184.493 38.3341C185.419 38.3341 186.216 38.1942 186.884 37.9037C187.541 37.6131 188.047 37.2579 188.403 36.8382C188.747 36.4185 189.027 35.8481 189.221 35.1271C189.426 34.406 189.544 33.7496 189.587 33.1684C189.641 32.5873 189.663 31.8554 189.663 30.973C189.663 30.0797 189.641 29.3372 189.587 28.7345C189.544 28.1318 189.426 27.4753 189.221 26.765C189.027 26.0548 188.747 25.4844 188.403 25.0647C188.047 24.6449 187.541 24.2898 186.884 23.9992ZM204.611 43.1555H198.784V25.2799C198.784 23.2244 199.398 21.6208 200.637 20.4585C201.864 19.2963 203.609 18.7151 205.871 18.7151H214.293V23.8055H206.118C205.117 23.8055 204.611 24.3113 204.611 25.3122V28.8744H211.988V33.9325H204.611V43.1555ZM223.447 18.7151V43.1555H217.653V18.7151H223.447ZM243.683 23.8055H238.201V43.1555H232.364V23.8055H226.807V18.7151H243.683V23.8055Z" fill="#036CB5"/>
<path d="M125.868 33.7431L126.688 28.1217L119.7 28.1217L118.879 33.7431L125.868 33.7431Z" fill="#29ADB2"/>
<path fill-rule="evenodd" clip-rule="evenodd" d="M39.8799 27.8519C39.2229 20.0064 32.6535 13.8506 24.6302 13.8506C19.9562 13.8506 15.7669 15.9492 12.9561 19.2531V11.7843C16.2946 9.53506 20.3116 8.22211 24.6302 8.22211C35.7551 8.22211 44.8554 16.907 45.5123 27.8519H39.8799Z" fill="#036CB5"/>
<path fill-rule="evenodd" clip-rule="evenodd" d="M25.8789 44.3715C33.2883 43.7689 39.2116 37.8928 39.8685 30.5101H45.5117C44.8225 41.003 36.4007 49.3866 25.8789 50V44.3715Z" fill="#29ADB2"/>
<path fill-rule="evenodd" clip-rule="evenodd" d="M6.52633 0L13.0419 8.62032H9.33718V14.873V28.9604V29.0465V29.1864C9.35872 37.1287 15.4543 43.6505 23.2191 44.35V49.9892C12.3419 49.2682 3.73703 40.2389 3.70472 29.1864V29.1326V8.62032H0L6.52633 0Z" fill="#036CB5"/>
<path fill-rule="evenodd" clip-rule="evenodd" d="M24.619 18.6935C26.3744 18.6935 27.796 20.1141 27.796 21.8682C27.796 23.0521 27.139 24.0852 26.1698 24.6341C26.6221 24.7955 27.0529 24.9784 27.4513 25.1937C28.5498 24.2251 29.1098 23.0843 29.0237 21.1795C28.5068 20.975 28.1514 20.48 28.1514 19.8988C28.1514 19.1455 28.7652 18.532 29.5191 18.532C30.273 18.532 30.8868 19.1455 30.8868 19.8988C30.8868 20.3723 30.6499 20.7921 30.2837 21.0396C30.4345 23.3964 29.8206 24.774 28.5929 25.9147C29.1422 26.3345 29.6376 26.8187 30.0791 27.3676C31.1561 28.7021 31.8992 30.4025 32.3192 32.4688C32.933 32.641 33.3961 33.2221 33.3961 33.9001C33.3961 34.718 32.7284 35.3745 31.9099 35.3745C31.0914 35.3745 30.4237 34.718 30.4237 33.9001C30.4237 33.3835 30.6822 32.9423 31.0699 32.6732C30.693 30.8222 30.036 29.3155 29.0991 28.1532C28.6575 27.6044 28.1406 27.1308 27.5698 26.7326C27.1929 26.9909 26.7836 27.2492 26.3313 27.5183C27.3436 28.0994 28.3775 29.068 29.0345 30.3917C30.7145 33.7817 29.056 37.6991 26.0082 39.8515C25.4374 40.2604 24.9313 40.4326 24.619 40.4541C24.2959 40.4326 23.7897 40.2604 23.2189 39.8515C20.1711 37.6991 18.5126 33.7817 20.1927 30.3917C20.8496 29.068 21.8835 28.0994 22.8958 27.5183C22.4435 27.2492 22.0343 26.9909 21.6573 26.7326C21.0866 27.1308 20.5696 27.6044 20.1281 28.1532C19.1911 29.3155 18.5342 30.8222 18.1572 32.6732C18.5449 32.9423 18.8034 33.3835 18.8034 33.9001C18.8034 34.718 18.1357 35.3745 17.3172 35.3745C16.4987 35.3745 15.8418 34.718 15.8418 33.9001C15.8418 33.2221 16.2941 32.6517 16.908 32.4688C17.328 30.4025 18.0711 28.7021 19.148 27.3676C19.5896 26.8187 20.085 26.3345 20.6342 25.9147C19.4065 24.774 18.7926 23.3964 18.9434 21.0396C18.5773 20.7921 18.3403 20.3723 18.3403 19.8988C18.3403 19.1455 18.9542 18.532 19.7081 18.532C20.4619 18.532 21.0758 19.1455 21.0758 19.8988C21.0758 20.48 20.7204 20.975 20.2035 21.1795C20.1173 23.0843 20.6773 24.2251 21.7758 25.1937C22.1743 24.9784 22.6051 24.7955 23.0574 24.6341C22.0881 24.0852 21.4312 23.0521 21.4312 21.8682C21.4312 20.1141 22.8528 18.6935 24.619 18.6935Z" fill="#29ADB2"/>
</svg>
