<svg width="20" height="16" viewBox="0 0 20 16" fill="none" xmlns="http://www.w3.org/2000/svg">
<path d="M1.99219 9.97534H18.0078V11.1592H1.99219V9.97534Z" fill="#1C1D1E"/>
<path d="M10 6.07765C10.5818 5.86677 10.9766 5.30918 10.9766 4.6738V4.14604L10 3.77608L9.02344 4.14604V4.6738C9.02344 5.30921 9.4182 5.86677 10 6.07765Z" fill="#1C1D1E"/>
<path d="M2.1448 12.3431C2.80824 14.2231 4.57074 15.5 6.58055 15.5H13.4195C15.4293 15.5 17.1917 14.2231 17.8552 12.3431H2.1448Z" fill="#1C1D1E"/>
<path d="M17.9977 8.79149C18.8628 8.79149 19.6329 8.21889 19.8706 7.37855C19.9557 7.07778 20 6.76256 20 6.44023C20 5.32184 19.4563 4.27709 18.5455 3.64554C16.8514 2.4708 13.4885 0.5 10 0.5C6.51152 0.5 3.14859 2.4708 1.45449 3.64558C0.54375 4.27713 0 5.32188 0 6.44027C0 6.7626 0.0442969 7.07782 0.129375 7.37859C0.367109 8.21893 1.13719 8.79153 2.0023 8.79153H17.9977V8.79149ZM7.85156 3.73587C7.85156 3.48916 8.00309 3.26825 8.23176 3.18163L9.79426 2.5897C9.92688 2.53947 10.0731 2.53947 10.2057 2.5897L11.7682 3.18163C11.9969 3.26825 12.1484 3.48912 12.1484 3.73587V4.67384C12.1484 5.90394 11.3234 6.97143 10.1421 7.26976C10.0954 7.28152 10.0477 7.28744 9.99996 7.28744C9.95223 7.28744 9.90453 7.28156 9.85785 7.26976C8.6766 6.97139 7.85156 5.90394 7.85156 4.67384V3.73587Z" fill="#1C1D1E"/>
</svg>
