<svg width="12" height="12" viewBox="0 0 12 12" fill="none" xmlns="http://www.w3.org/2000/svg">
<path fill-rule="evenodd" clip-rule="evenodd" d="M8.71832 5.99757L11.4374 3.2813C12.1875 2.53265 12.1875 1.31374 11.4374 0.565086C10.6862 -0.188362 9.469 -0.188362 8.71832 0.565086L5.99976 3.2813L3.28121 0.565086C2.53101 -0.188362 1.3138 -0.188362 0.562647 0.565086C-0.187549 1.31374 -0.187549 2.53265 0.562647 3.2813L3.28121 5.99757L0.562647 8.71864C-0.187549 9.46729 -0.187549 10.6863 0.562647 11.4349C1.3138 12.1884 2.53101 12.1884 3.28121 11.4349L5.99976 8.71864L8.71832 11.4349C9.469 12.1884 10.6862 12.1884 11.4374 11.4349C12.1875 10.6863 12.1875 9.46729 11.4374 8.71864L8.71832 5.99757Z" fill="#1C1D1E"/>
</svg>
