<svg width="20" height="18" viewBox="0 0 20 18" fill="none" xmlns="http://www.w3.org/2000/svg">
<path d="M19.3764 5.34754L10.611 0.637509C10.2696 0.454164 9.8615 0.454164 9.52028 0.637509L0.754795 5.34754C0.371333 5.55354 0.131383 5.95894 0.131383 6.40051C0.131383 6.7516 0.283431 7.07933 0.538357 7.30268V10.6263H0.392943C0.292016 10.6172 0.202212 10.6914 0.190553 10.7938L0.112749 11.4775C0.0755293 11.8042 0.0383587 12.1309 0.00123691 12.4577C-0.00451917 12.5084 0.00996859 12.5594 0.0414807 12.5992C0.0729928 12.6389 0.118846 12.6642 0.1687 12.6689H1.66465C1.7145 12.6641 1.76035 12.6389 1.79187 12.5992C1.82333 12.5594 1.83782 12.5085 1.83206 12.4577L1.64269 10.7939C1.63099 10.6915 1.54133 10.6172 1.4404 10.6264H1.29494V7.7437L2.62001 8.45572V15.1179C2.62001 15.5754 2.89401 15.9864 3.31142 16.1552C5.518 17.0475 7.79038 17.5 10.0654 17.5C10.0657 17.5 10.0657 17.5 10.066 17.5C12.3403 17.5 14.6128 17.0476 16.82 16.1553C17.2375 15.9866 17.5116 15.5754 17.5116 15.1179C17.5113 12.2659 17.5113 11.6382 17.5115 9.22219L17.5115 8.45572L19.3765 7.45348C19.76 7.24748 20 6.84213 20 6.40061C19.9998 5.95889 19.7598 5.55354 19.3764 5.34754ZM10.0659 15.2679C10.0657 15.2679 10.0654 15.2679 10.0653 15.2679C8.30389 15.2679 6.5399 14.9571 4.81127 14.3432V9.633L9.52033 12.1634C9.69096 12.255 9.87823 12.3009 10.0655 12.3009C10.253 12.3009 10.4403 12.2551 10.611 12.1634L15.3198 9.633C15.3197 11.5035 15.3197 12.2718 15.3198 14.3432C13.5907 14.9573 11.8268 15.2679 10.0659 15.2679Z" fill="#1C1D1E"/>
</svg>
