<svg width="22" height="24" viewBox="0 0 22 24" fill="none" xmlns="http://www.w3.org/2000/svg">
<path d="M11.981 7.53484C10.6584 7.53484 9.36557 7.92765 8.26588 8.6636C7.16619 9.39954 6.30909 10.4456 5.80297 11.6694C5.29684 12.8932 5.16441 14.2399 5.42243 15.5391C5.68045 16.8383 6.31734 18.0317 7.25254 18.9684C8.18775 19.9051 9.37927 20.543 10.6764 20.8014C11.9736 21.0599 13.3182 20.9272 14.5401 20.4203C15.762 19.9134 16.8063 19.0549 17.5411 17.9535C18.2759 16.8521 18.6681 15.5571 18.6681 14.2325C18.6681 12.4562 17.9636 10.7526 16.7095 9.49653C15.4554 8.24048 13.7545 7.53484 11.981 7.53484ZM14.9579 14.6064C14.8885 14.7456 14.7818 14.8627 14.6497 14.9445C14.5176 15.0263 14.3654 15.0697 14.2101 15.0697C14.0808 15.0699 13.9533 15.0397 13.8378 14.9815L11.6088 13.8652C11.4695 13.796 11.3523 13.6892 11.2704 13.5569C11.1885 13.4245 11.1451 13.2719 11.1451 13.1162V9.76739C11.1451 9.54535 11.2332 9.3324 11.39 9.17539C11.5467 9.01839 11.7593 8.93018 11.981 8.93018C12.2027 8.93018 12.4153 9.01839 12.5721 9.17539C12.7288 9.3324 12.8169 9.54535 12.8169 9.76739V12.5983L14.5834 13.4835C14.7817 13.5826 14.9326 13.7567 15.0029 13.9673C15.0731 14.1779 15.0569 14.4078 14.9579 14.6064Z" fill="#1C1D1E"/>
<path d="M6.40846 13.9534H0.835886C0.614195 13.9534 0.401584 13.8652 0.244825 13.7082C0.0880663 13.5512 0 13.3382 0 13.1162C0 12.8942 0.0880663 12.6812 0.244825 12.5242C0.401584 12.3672 0.614195 12.279 0.835886 12.279H6.40846C6.63015 12.279 6.84276 12.3672 6.99952 12.5242C7.15627 12.6812 7.24434 12.8942 7.24434 13.1162C7.24434 13.3382 7.15627 13.5512 6.99952 13.7082C6.84276 13.8652 6.63015 13.9534 6.40846 13.9534Z" fill="#1C1D1E"/>
<path d="M6.40846 17.3022H1.9504C1.72871 17.3022 1.5161 17.214 1.35934 17.057C1.20258 16.9 1.11451 16.6871 1.11451 16.465C1.11451 16.243 1.20258 16.03 1.35934 15.873C1.5161 15.716 1.72871 15.6278 1.9504 15.6278H6.40846C6.63015 15.6278 6.84276 15.716 6.99952 15.873C7.15627 16.03 7.24434 16.243 7.24434 16.465C7.24434 16.6871 7.15627 16.9 6.99952 17.057C6.84276 17.214 6.63015 17.3022 6.40846 17.3022Z" fill="#1C1D1E"/>
<path d="M10.8665 20.651H4.17943C3.95774 20.651 3.74513 20.5628 3.58837 20.4058C3.43161 20.2488 3.34354 20.0359 3.34354 19.8138C3.34354 19.5918 3.43161 19.3789 3.58837 19.2218C3.74513 19.0648 3.95774 18.9766 4.17943 18.9766H10.8665C11.0882 18.9766 11.3008 19.0648 11.4576 19.2218C11.6143 19.3789 11.7024 19.5918 11.7024 19.8138C11.7024 20.0359 11.6143 20.2488 11.4576 20.4058C11.3008 20.5628 11.0882 20.651 10.8665 20.651Z" fill="#1C1D1E"/>
<path d="M14.2101 1.67441H9.752C9.53031 1.67441 9.3177 1.5862 9.16094 1.4292C9.00418 1.27219 8.91611 1.05925 8.91611 0.837205C8.91611 0.615164 9.00418 0.402218 9.16094 0.245212C9.3177 0.0882053 9.53031 0 9.752 0H14.2101C14.4317 0 14.6444 0.0882053 14.8011 0.245212C14.9579 0.402218 15.0459 0.615164 15.0459 0.837205C15.0459 1.05925 14.9579 1.27219 14.8011 1.4292C14.6444 1.5862 14.4317 1.67441 14.2101 1.67441Z" fill="#1C1D1E"/>
<path d="M11.981 5.02323C11.7593 5.02323 11.5467 4.93502 11.39 4.77802C11.2332 4.62101 11.1451 4.40806 11.1451 4.18602V0.837205C11.1451 0.615164 11.2332 0.402218 11.39 0.245212C11.5467 0.0882053 11.7593 0 11.981 0C12.2027 0 12.4153 0.0882053 12.5721 0.245212C12.7288 0.402218 12.8169 0.615164 12.8169 0.837205V4.18602C12.8169 4.40806 12.7288 4.62101 12.5721 4.77802C12.4153 4.93502 12.2027 5.02323 11.981 5.02323Z" fill="#1C1D1E"/>
<path d="M8.99413 23.4975C8.90668 23.4974 8.8198 23.4834 8.73668 23.4562C8.17034 23.2704 7.62468 23.0265 7.10837 22.7284C7.00694 22.6773 6.91698 22.606 6.84396 22.5189C6.77094 22.4319 6.71641 22.3308 6.68368 22.2219C6.65095 22.113 6.64071 21.9986 6.6536 21.8856C6.66648 21.7726 6.70221 21.6634 6.75861 21.5647C6.81501 21.466 6.89089 21.3799 6.98163 21.3115C7.07237 21.2431 7.17606 21.194 7.28639 21.1671C7.39671 21.1402 7.51134 21.1361 7.6233 21.1551C7.73526 21.174 7.84219 21.2156 7.93757 21.2773C8.35496 21.5177 8.79558 21.7152 9.2527 21.8667C9.44012 21.9297 9.59919 22.0572 9.70164 22.2265C9.8041 22.3959 9.8433 22.5961 9.8123 22.7917C9.78129 22.9872 9.68208 23.1655 9.53229 23.2947C9.3825 23.4239 9.19182 23.4958 8.99413 23.4975Z" fill="#1C1D1E"/>
<path d="M11.981 23.9999C11.6782 24.0017 11.3756 23.9846 11.0749 23.9485C10.9644 23.9368 10.8573 23.9032 10.7599 23.8495C10.6624 23.7959 10.5767 23.7233 10.5076 23.636C10.4386 23.5488 10.3876 23.4486 10.3577 23.3414C10.3277 23.2342 10.3194 23.122 10.3333 23.0115C10.3472 22.9011 10.3829 22.7945 10.4384 22.698C10.4939 22.6015 10.568 22.5171 10.6565 22.4497C10.745 22.3823 10.846 22.3332 10.9536 22.3053C11.0612 22.2775 11.1733 22.2714 11.2833 22.2875C11.5149 22.3146 11.7479 22.3273 11.981 22.3255C13.9653 22.3225 15.8839 21.6127 17.3936 20.3228C18.9032 19.0329 19.9055 17.2473 20.2211 15.2851C20.5368 13.3229 20.1452 11.3123 19.1164 9.61284C18.0876 7.91336 16.4887 6.63589 14.6057 6.0089C13.9603 5.78891 13.2895 5.652 12.6096 5.60146C12.4268 5.59253 12.2039 5.58136 11.981 5.58136C10.2521 5.58092 8.56556 6.11745 7.15376 7.11704C5.74197 8.11663 4.67438 9.5301 4.09807 11.1627C4.02157 11.3686 3.86736 11.5361 3.66868 11.6291C3.47 11.7222 3.24278 11.7333 3.03601 11.66C2.82923 11.5868 2.65948 11.4351 2.56335 11.2377C2.46723 11.0402 2.45243 10.8129 2.52215 10.6046C3.21368 8.64555 4.49469 6.94946 6.18871 5.74996C7.88273 4.55046 9.90642 3.90656 11.981 3.90696C12.2296 3.90696 12.4759 3.91812 12.7121 3.9304C13.5373 3.98984 14.3516 4.15451 15.1351 4.42044C17.3947 5.1732 19.3133 6.70658 20.5475 8.74631C21.7818 10.786 22.2512 13.199 21.8719 15.5537C21.4926 17.9083 20.2893 20.051 18.4771 21.5984C16.665 23.1459 14.3624 23.9971 11.981 23.9999Z" fill="#1C1D1E"/>
</svg>
