<svg width="20" height="20" viewBox="0 0 20 20" fill="none" xmlns="http://www.w3.org/2000/svg">
<path d="M18.1239 5.00781H2.97481C2.90357 5.0228 2.82107 5.0303 2.73733 5.0303C2.04737 5.0303 1.48741 4.47054 1.48741 3.78085C1.48741 3.77335 1.48741 3.7646 1.48741 3.75711L17.4989 3.13363V1.64678C17.5052 1.59555 17.5089 1.53558 17.5089 1.47436C17.5089 0.659711 16.8489 0 16.034 0C15.9728 0 15.9128 0.00374836 15.854 0.0112451L1.6374 2.32148C0.673708 2.68258 0 3.59593 0 4.66671C0 4.68045 0 4.69545 0 4.70919V18.1133C0 18.1171 0 18.1208 0 18.1258C0 19.1604 0.839947 20 1.87488 20H18.1239C19.1588 20 19.9988 19.1604 19.9988 18.1258C19.9988 18.1208 19.9988 18.1171 19.9988 18.1121V6.86824C19.9988 6.85325 20 6.83451 20 6.81702C20 5.81621 19.1888 5.00531 18.1876 5.00531C18.1651 5.00531 18.1426 5.00531 18.1214 5.00656L18.1239 5.00781ZM16.249 13.754C15.214 13.754 14.3741 12.9144 14.3741 11.8798C14.3741 10.8453 15.214 10.0056 16.249 10.0056C17.2839 10.0056 18.1239 10.8453 18.1239 11.8798C18.1239 12.9144 17.2839 13.754 16.249 13.754Z" fill="#1C1D1E"/>
</svg>
