<svg width="20" height="20" viewBox="0 0 20 20" fill="none" xmlns="http://www.w3.org/2000/svg">
<path fill-rule="evenodd" clip-rule="evenodd" d="M0.073027 12.4547L3.18889 19.2903C3.40836 19.8685 3.84149 20.145 4.41516 19.9242L5.76637 16.876C5.85852 16.9188 5.93953 16.9554 5.98678 16.9768C10.824 19.1638 15.9506 17.319 18.0417 12.6017C18.7699 10.9588 17.7582 11.2199 17.1926 11.6523C14.5255 13.6943 11.1274 14.3742 7.76752 12.8551C7.72798 12.8373 7.6609 12.8058 7.58472 12.7713L8.90703 9.78832C8.68756 9.21009 8.15531 9.02669 7.68076 9.15445L0.713159 11.0081C0.141849 11.2288 -0.145048 11.876 0.073027 12.4547Z" fill="#1C1D1E"/>
<path fill-rule="evenodd" clip-rule="evenodd" d="M19.927 7.54525L16.8111 0.709703C16.5916 0.131468 16.1585 -0.144974 15.5848 0.0758288L14.2336 3.12405C14.1415 3.08121 14.0605 3.04459 14.0132 3.02322C9.17596 0.836167 4.04943 2.681 1.95832 7.39834C1.23008 9.04118 2.24182 8.78011 2.80742 8.3477C5.47454 6.30569 8.87263 5.62577 12.2325 7.14485C12.272 7.16273 12.3391 7.19423 12.4153 7.22867L11.093 10.2117C11.3124 10.7899 11.8447 10.9733 12.3192 10.8456L19.2868 8.99194C19.8582 8.77124 20.145 8.12403 19.927 7.54525Z" fill="#1C1D1E"/>
</svg>
