<svg width="12" height="20" viewBox="0 0 12 20" fill="none" xmlns="http://www.w3.org/2000/svg">
<path d="M12 13.6034C12 10.2069 8.40171 9.24138 6.84615 8.7931C3.90598 7.96552 3.65812 6.89655 3.70086 6.35345C3.80342 5.01724 5.25641 4.68966 6.60684 4.98276C7.66667 5.21552 8.76068 5.84483 9.36752 6.32759L11.2906 4.05172C10.3419 3.39655 9.12821 2.55172 7.35043 2.2069V0H4.53846V2.12931C1.81197 2.33621 0 4.06034 0 6.43103C0 8.74138 1.65812 9.82759 3.31624 10.6379C4.70086 11.3017 8.5641 12 8.34188 13.7586C8.22222 14.7155 7.21368 15.4224 5.54701 15.2069C4.09402 15.0259 2.53846 13.7931 2.53846 13.7931L0.410256 15.9224C1.69231 16.9655 3.05128 17.6207 4.52992 17.9224V20H7.34188V18.0259C10.0256 17.7328 12 15.8879 12 13.6034Z" fill="#1C1D1E"/>
</svg>
