<svg width="20" height="16" viewBox="0 0 20 16" fill="none" xmlns="http://www.w3.org/2000/svg">
<path d="M9.99989 10.6667C9.46052 10.6667 8.93327 10.8231 8.48481 11.1161C8.03635 11.4091 7.68681 11.8256 7.48041 12.3128C7.274 12.8001 7.22 13.3363 7.32522 13.8536C7.43044 14.3709 7.69017 14.846 8.07156 15.219C8.45295 15.5919 8.93886 15.8459 9.46786 15.9488C9.99686 16.0517 10.5452 15.9988 11.0435 15.797C11.5418 15.5952 11.9677 15.2534 12.2674 14.8149C12.567 14.3763 12.727 13.8607 12.727 13.3333C12.7265 12.6262 12.439 11.9482 11.9277 11.4482C11.4164 10.9482 10.723 10.6671 9.99989 10.6667Z" fill="#1C1D1E"/>
<path d="M4.22885 7.69531C3.97386 7.94602 3.83117 8.28552 3.83217 8.6391C3.83316 8.99269 3.97776 9.33141 4.23415 9.58074C4.49054 9.83008 4.83773 9.96961 5.19932 9.96864C5.56092 9.96766 5.90731 9.82627 6.16229 9.57556C7.18994 8.59865 8.56666 8.05212 9.99989 8.05212C11.4331 8.05212 12.8098 8.59865 13.8375 9.57556C13.9638 9.70066 14.1143 9.79988 14.2803 9.86742C14.4463 9.93495 14.6244 9.96945 14.8042 9.96889C15.0735 9.96883 15.3368 9.89079 15.5608 9.74461C15.7848 9.59843 15.9595 9.39065 16.0629 9.14749C16.1663 8.90433 16.1938 8.63668 16.1418 8.37828C16.0898 8.11989 15.9608 7.88232 15.7709 7.69556C12.6763 4.64845 7.32343 4.64845 4.22885 7.69531Z" fill="#1C1D1E"/>
<path d="M19.606 3.95051C18.3544 2.69986 16.86 1.7062 15.2105 1.02782C13.5609 0.349439 11.7895 0 10 0C8.21052 0 6.43906 0.349439 4.78952 1.02782C3.13999 1.7062 1.6456 2.69986 0.394023 3.95051C0.139751 4.20191 -0.00197587 4.54179 2.08147e-05 4.89537C0.0020175 5.24896 0.147574 5.58728 0.40467 5.83592C0.661766 6.08456 1.00934 6.22315 1.37093 6.2212C1.73252 6.21925 2.07851 6.07691 2.33279 5.82551C6.45002 1.7526 13.55 1.7526 17.6672 5.82551C17.9215 6.07691 18.2675 6.21925 18.6291 6.2212C18.9907 6.22315 19.3382 6.08456 19.5953 5.83592C19.8524 5.58728 19.998 5.24896 20 4.89537C20.002 4.54179 19.8602 4.20191 19.606 3.95051Z" fill="#1C1D1E"/>
</svg>
