<svg width="20" height="20" viewBox="0 0 20 20" fill="none" xmlns="http://www.w3.org/2000/svg">
<path d="M5.68562 3.34448H7.02341C7.0681 3.34744 7.1129 3.34081 7.15481 3.32505C7.19673 3.30929 7.2348 3.28475 7.26647 3.25309C7.29813 3.22142 7.32267 3.18335 7.33843 3.14144C7.35419 3.09952 7.36082 3.05472 7.35786 3.01003V2.00669H12.6421V3.01003C12.6392 3.05472 12.6458 3.09952 12.6616 3.14144C12.6773 3.18335 12.7019 3.22142 12.7335 3.25309C12.7652 3.28475 12.8033 3.30929 12.8452 3.32505C12.8871 3.34081 12.9319 3.34744 12.9766 3.34448H14.3144C14.3591 3.34744 14.4039 3.34081 14.4458 3.32505C14.4877 3.30929 14.5258 3.28475 14.5574 3.25309C14.5891 3.22142 14.6136 3.18335 14.6294 3.14144C14.6452 3.09952 14.6518 3.05472 14.6488 3.01003V2.00669C14.6488 1.47448 14.4374 0.964072 14.0611 0.587745C13.6848 0.211418 13.1743 0 12.6421 0H7.35786C6.82565 0 6.31524 0.211418 5.93892 0.587745C5.56259 0.964072 5.35117 1.47448 5.35117 2.00669V3.01003C5.34822 3.05472 5.35484 3.09952 5.3706 3.14144C5.38636 3.18335 5.4109 3.22142 5.44257 3.25309C5.47423 3.28475 5.5123 3.30929 5.55421 3.32505C5.59613 3.34081 5.64093 3.34744 5.68562 3.34448Z" fill="#1C1D1E"/>
<path d="M17.9933 5.35117H2.00669C1.47448 5.35117 0.964073 5.56259 0.587745 5.93892C0.211418 6.31524 0 6.82565 0 7.35786V17.9933C0 18.5255 0.211418 19.0359 0.587745 19.4123C0.964073 19.7886 1.47448 20 2.00669 20H17.9933C18.5255 20 19.0359 19.7886 19.4123 19.4123C19.7886 19.0359 20 18.5255 20 17.9933V7.35786C19.9873 6.82966 19.7718 6.32661 19.3982 5.95301C19.0246 5.57941 18.5215 5.3639 17.9933 5.35117ZM15.0836 10.7358L9.26421 16.5552C9.15912 16.6612 9.03409 16.7453 8.89632 16.8027C8.75855 16.8601 8.61078 16.8896 8.46154 16.8896C8.31229 16.8896 8.16452 16.8601 8.02676 16.8027C7.88899 16.7453 7.76395 16.6612 7.65886 16.5552L4.8495 13.7458C4.79395 13.6948 4.74961 13.6327 4.71928 13.5636C4.68895 13.4946 4.67329 13.4199 4.67329 13.3445C4.67329 13.269 4.68895 13.1944 4.71928 13.1253C4.74961 13.0562 4.79395 12.9942 4.8495 12.9431L5.65217 12.1405C5.70323 12.0849 5.76527 12.0406 5.83435 12.0103C5.90344 11.9799 5.97806 11.9643 6.05351 11.9643C6.12896 11.9643 6.20359 11.9799 6.27267 12.0103C6.34175 12.0406 6.40379 12.0849 6.45485 12.1405L8.46154 14.1472L13.4783 9.13043C13.5293 9.07489 13.5914 9.03055 13.6604 9.00022C13.7295 8.96988 13.8042 8.95422 13.8796 8.95422C13.955 8.95422 14.0297 8.96988 14.0988 9.00022C14.1678 9.03055 14.2299 9.07489 14.2809 9.13043L15.0836 9.93311C15.181 10.0441 15.2347 10.1868 15.2347 10.3344C15.2347 10.4821 15.181 10.6248 15.0836 10.7358Z" fill="#1C1D1E"/>
</svg>
