<svg width="20" height="20" viewBox="0 0 20 20" fill="none" xmlns="http://www.w3.org/2000/svg">
<path d="M8.97019 0.638982C9.41476 -0.212993 10.5852 -0.212994 11.0298 0.638981L13.3876 5.1575C13.5563 5.48082 13.8552 5.70775 14.2015 5.77554L19.0418 6.72289C19.9545 6.90151 20.3162 8.06498 19.6783 8.77015L16.2952 12.5101C16.0531 12.7777 15.9389 13.1449 15.9843 13.5101L16.618 18.6141C16.7374 19.5765 15.7905 20.2955 14.9517 19.8794L10.503 17.6723C10.1847 17.5144 9.8153 17.5144 9.49698 17.6723L5.0483 19.8794C4.2095 20.2955 3.26255 19.5765 3.38203 18.6141L4.01571 13.5101C4.06105 13.1449 3.94691 12.7777 3.70483 12.5101L0.321714 8.77015C-0.316178 8.06498 0.0455218 6.90151 0.958172 6.72289L5.79849 5.77554C6.14483 5.70775 6.44368 5.48082 6.61239 5.1575L8.97019 0.638982Z" fill="#1C1D1E"/>
</svg>
