<svg width="20" height="20" viewBox="0 0 20 20" fill="none" xmlns="http://www.w3.org/2000/svg">
<path d="M1.45834 19.2889H3.54168C4.34585 19.2889 5.00002 18.626 5.00002 17.8111V8.1C5.00002 7.28511 4.34585 6.62222 3.54168 6.62222H1.45834C0.65417 6.62222 0 7.28511 0 8.1V17.8111C0 18.626 0.65417 19.2889 1.45834 19.2889Z" fill="#1C1D1E"/>
<path d="M10.6509 0.5C9.81755 0.5 9.40088 0.922222 9.40088 3.03333C9.40088 5.03973 7.48337 6.65431 6.25003 7.48609V17.9471C7.5842 18.5728 10.255 19.5 14.4009 19.5H15.7342C17.3592 19.5 18.7426 18.3178 19.0176 16.6964L19.9509 11.2076C20.3009 9.13867 18.7343 7.25556 16.6676 7.25556H12.7342C12.7342 7.25556 13.3592 5.98889 13.3592 3.87778C13.3592 1.34444 11.4842 0.5 10.6509 0.5Z" fill="#1C1D1E"/>
</svg>
