<svg width="20" height="20" viewBox="0 0 20 20" fill="none" xmlns="http://www.w3.org/2000/svg">
<path d="M8.57143 4.28571C8.57143 6.65264 6.65264 8.57143 4.28571 8.57143C1.91879 8.57143 0 6.65264 0 4.28571C0 1.91879 1.91879 0 4.28571 0C6.65264 0 8.57143 1.91879 8.57143 4.28571Z" fill="#1C1D1E"/>
<path d="M19.5816 2.43873L2.43873 19.5816L0.418414 17.5613L17.5613 0.418414L19.5816 2.43873Z" fill="#1C1D1E"/>
<path d="M15.7143 20C18.0813 20 20 18.0813 20 15.7143C20 13.3473 18.0813 11.4286 15.7143 11.4286C13.3473 11.4286 11.4286 13.3473 11.4286 15.7143C11.4286 18.0813 13.3473 20 15.7143 20Z" fill="#1C1D1E"/>
</svg>
