<svg width="20" height="18" viewBox="0 0 20 18" fill="none" xmlns="http://www.w3.org/2000/svg">
<path d="M1.99328 4.11862C1.84836 4.65614 1.29248 4.97514 0.751659 4.83111C0.210835 4.68708 -0.110119 4.13456 0.034796 3.59703L1.99328 4.11862ZM3.61908 0.034584C4.15991 -0.109448 4.71582 0.20955 4.86073 0.747079C5.00564 1.2846 4.68468 1.8371 4.14387 1.98113C3.64431 2.11418 3.1874 2.37157 2.81612 2.72864L2.78044 2.7635C2.40294 3.13872 2.13146 3.60608 1.99328 4.11862L0.034796 3.59703C0.265091 2.7428 0.717555 1.96389 1.34672 1.33854L1.34675 1.33851C1.97593 0.713183 2.75962 0.263475 3.61908 0.034584Z" fill="#1C1D1E"/>
<path d="M15.1393 0.747049C15.282 0.217924 15.8229 -0.0994269 16.3556 0.0281779L16.381 0.0345838L16.4212 0.0454767C17.2649 0.277578 18.0339 0.722962 18.6532 1.33851C19.2824 1.96383 19.7349 2.74276 19.9652 3.59706C20.1101 4.13459 19.7891 4.6871 19.2483 4.83111C18.7075 4.97512 18.1516 4.65609 18.0067 4.11856C17.8686 3.6061 17.5971 3.13874 17.2195 2.7635C16.8538 2.4 16.4011 2.13542 15.9043 1.99439L15.8561 1.98113L15.831 1.97408C15.3054 1.81983 14.9967 1.27618 15.1393 0.747049Z" fill="#1C1D1E"/>
<path fill-rule="evenodd" clip-rule="evenodd" d="M10 18C14.4792 18 18.1103 14.391 18.1103 9.93907C18.1103 5.48714 14.4792 1.87814 10 1.87814C5.52078 1.87814 1.88965 5.48714 1.88965 9.93907C1.88965 14.391 5.52078 18 10 18ZM11.0138 5.9086C11.0138 5.35212 10.5599 4.90099 10 4.90099C9.44008 4.90099 8.98621 5.35212 8.98621 5.9086V9.68716C8.98621 10.3828 9.55352 10.9467 10.2534 10.9467H13.0414C13.6013 10.9467 14.0552 10.4956 14.0552 9.93907C14.0552 9.38256 13.6013 8.93145 13.0414 8.93145H11.0138V5.9086Z" fill="#1C1D1E"/>
</svg>
