<svg width="20" height="20" viewBox="0 0 20 20" fill="none" xmlns="http://www.w3.org/2000/svg">
<path fill-rule="evenodd" clip-rule="evenodd" d="M10 0C15.5228 0 20 4.47715 20 10C20 15.5228 15.5228 20 10 20C4.47715 20 0 15.5228 0 10C0 4.47715 4.47715 0 10 0ZM10 2C9.83206 2 9.66533 2.00517 9.49996 2.01537L9.5 4.26759L5 8L2.74241 6.62984C2.26599 7.65406 2 8.79597 2 10C2 13.1631 3.83571 15.8974 6.49988 17.1957L6.5 14.707L4.5394 12.7465L3.97607 9.92984L4.75853 8.3649L7.597 9.5H10.9336L11.5171 13.5839L9.32312 17.9718C9.54627 17.9905 9.77202 18 10 18C12.8223 18 15.3033 16.5385 16.7274 14.3311L15.128 9H13.6615L12.4524 5.97722L13.8061 3.2698L16.0499 4.76548C14.5831 3.07157 12.4167 2 10 2Z" fill="#1C1D1E"/>
</svg>
