<svg width="20" height="20" viewBox="0 0 20 20" fill="none" xmlns="http://www.w3.org/2000/svg">
<path d="M11.7994 4.70664L8.84956 7.51107L5.8997 4.70664L4.42478 6.10886L7.37463 8.91328L4.42478 11.7177L5.8997 13.1199L8.84956 10.3155L11.7994 13.1199L13.2743 11.7177L10.3245 8.91328L13.2743 6.10886L11.7994 4.70664ZM15.885 14.0033C17.0206 12.5871 17.6991 10.8203 17.6991 8.91328C17.6991 4.27196 13.7316 0.5 8.84956 0.5C3.96755 0.5 0 4.27196 0 8.91328C0 13.5546 3.96755 17.3266 8.84956 17.3266C10.8702 17.3266 12.7286 16.6815 14.2183 15.5878L18.3333 19.5L20 17.9155L15.885 14.0033ZM8.70206 15.069C5.04425 15.069 2.07965 12.2365 2.07965 8.75904C2.07965 5.28155 5.059 2.44908 8.70206 2.44908C12.3451 2.44908 15.3392 5.28155 15.3392 8.75904C15.3392 12.2365 12.3451 15.069 8.70206 15.069Z" fill="#1C1D1E"/>
</svg>
