<svg width="18" height="20" viewBox="0 0 18 20" fill="none" xmlns="http://www.w3.org/2000/svg">
<path d="M15.3521 0H2.64785C1.18784 0 0 1.24729 0 2.78061V17.2193C0 18.7525 1.18784 20 2.64785 20H15.3522C16.8122 20 18 18.7525 18 17.2193V2.78061C17.9999 1.24729 16.8121 0 15.3521 0ZM5.83114 17.4006C5.83114 17.5168 5.74114 17.6113 5.63049 17.6113H3.20203C3.09139 17.6113 3.00128 17.5168 3.00128 17.4006V14.8504C3.00128 14.7342 3.09139 14.6396 3.20203 14.6396H5.63049C5.74114 14.6396 5.83114 14.7342 5.83114 14.8504V17.4006ZM5.83114 12.3669C5.83114 12.4831 5.74114 12.5777 5.63049 12.5777H3.20203C3.09139 12.5777 3.00128 12.4831 3.00128 12.3669V9.81667C3.00128 9.70042 3.09139 9.60586 3.20203 9.60586H5.63049C5.74114 9.60586 5.83114 9.70042 5.83114 9.81667V12.3669ZM10.6246 17.4006C10.6246 17.5168 10.5345 17.6113 10.4238 17.6113H7.99537C7.88472 17.6113 7.79461 17.5168 7.79461 17.4006V14.8504C7.79461 14.7342 7.88467 14.6396 7.99537 14.6396H10.4238C10.5345 14.6396 10.6246 14.7342 10.6246 14.8504V17.4006ZM10.6246 12.3669C10.6246 12.4831 10.5345 12.5777 10.4238 12.5777H7.99537C7.88472 12.5777 7.79461 12.4831 7.79461 12.3669V9.81667C7.79461 9.70042 7.88467 9.60586 7.99537 9.60586H10.4238C10.5345 9.60586 10.6246 9.70042 10.6246 9.81667V12.3669ZM15.3969 17.4156C15.3969 17.5319 15.3068 17.6264 15.1962 17.6264H12.7677C12.6571 17.6264 12.567 17.5319 12.567 17.4156V9.81673C12.567 9.70048 12.657 9.60591 12.7677 9.60591H15.1962C15.3068 9.60591 15.3969 9.70048 15.3969 9.81673V17.4156ZM15.8167 4.54699C15.8167 5.70371 14.9207 6.64461 13.8193 6.64461H4.1807C3.07921 6.64461 2.18323 5.70366 2.18323 4.54699V4.30332C2.18323 3.1466 3.07921 2.2057 4.1807 2.2057H13.8193C14.9207 2.2057 15.8167 3.14665 15.8167 4.30332V4.54699Z" fill="#1C1D1E"/>
</svg>
