<svg width="20" height="20" viewBox="0 0 20 20" fill="none" xmlns="http://www.w3.org/2000/svg">
<path d="M9.95253 0C11.5128 0 12.9974 0.363021 14.3295 1.0124C14.5384 1.1081 14.7487 1.22268 14.9569 1.33734L14.0435 2.159L12.6741 0.726126L10.3145 2.82725L8.92503 1.31796L4.58605 5.23419L7.36404 8.30988L6.27954 9.26482L9.02028 12.3404L7.9357 13.2949L11.8561 17.6696L14.1764 15.53L16.1945 17.823C15.7945 18.1287 15.3568 18.4349 14.8817 18.7019C13.3815 19.5546 11.6908 20.0015 9.9717 20C4.47146 20 6.19124e-05 15.5117 6.19124e-05 9.99145C-0.019188 4.50848 4.45296 0 9.95253 0ZM8.1252 9.37973L10.504 7.24011L12.6359 9.62792L10.2565 11.7674L8.1252 9.37973ZM9.81937 13.5062L12.1789 11.3475L14.3294 13.7351L11.9504 15.8748L9.81937 13.5062ZM6.43254 5.31094L8.81062 3.17131L10.942 5.55904L8.56304 7.69867L6.43254 5.31094ZM10.7895 4.16433L12.5595 2.55985L14.1584 4.33637L12.3884 5.95989L10.7895 4.16433ZM13.9489 11.519L15.7182 9.91436L17.317 11.7096L15.547 13.3153L13.9489 11.519ZM15.5091 15.1298L17.2791 13.5249L18.8767 15.3015L17.1073 16.9247L15.5091 15.1298ZM16.2324 6.877L17.4121 5.80715L18.4774 6.992L17.2978 8.06143L16.2324 6.877ZM14.71 3.34292L15.8898 2.25437L16.9559 3.45767L15.7753 4.52735L14.71 3.34292ZM17.7357 10.4113L18.9153 9.34157L20 10.526L18.8016 11.5955L17.7357 10.4113ZM12.4264 7.75595L14.1964 6.1513L15.7946 7.92748L14.0254 9.53247L12.4264 7.75595Z" fill="#1C1D1E"/>
</svg>
