<svg width="18" height="20" viewBox="0 0 18 20" fill="none" xmlns="http://www.w3.org/2000/svg">
<path d="M9.00137 10.3855C11.8741 10.3855 14.2224 8.04991 14.2224 5.19275C14.2224 2.33559 11.8741 0 9.00137 0C6.12863 0 3.78036 2.33559 3.78036 5.19275C3.78036 8.04991 6.12868 10.3855 9.00137 10.3855Z" fill="#1C1D1E"/>
<path d="M17.9615 14.5352C17.8247 14.195 17.6424 13.8776 17.4372 13.5828C16.3884 12.0408 14.7697 11.0204 12.9457 10.771C12.7177 10.7483 12.4669 10.7936 12.2845 10.9297C11.327 11.6326 10.187 11.9954 9.00141 11.9954C7.81582 11.9954 6.67587 11.6326 5.71829 10.9297C5.53588 10.7936 5.28509 10.7256 5.05711 10.771C3.23316 11.0204 1.59163 12.0408 0.565665 13.5828C0.360473 13.8776 0.178061 14.2177 0.0412948 14.5352C-0.027088 14.6712 -0.00430831 14.8299 0.0640745 14.966C0.246487 15.2835 0.474459 15.601 0.679651 15.873C0.998829 16.3039 1.34083 16.6894 1.72844 17.0522C2.04761 17.3696 2.41239 17.6644 2.77722 17.9592C4.57835 19.2971 6.7443 20 8.97863 20C11.213 20 13.3789 19.297 15.18 17.9592C15.5448 17.6871 15.9096 17.3696 16.2288 17.0522C16.5936 16.6894 16.9584 16.3039 17.2776 15.873C17.5056 15.5783 17.7108 15.2835 17.8932 14.966C18.0071 14.8299 18.0299 14.6712 17.9615 14.5352Z" fill="#1C1D1E"/>
</svg>
