<svg width="20" height="20" viewBox="0 0 20 20" fill="none" xmlns="http://www.w3.org/2000/svg">
<path fill-rule="evenodd" clip-rule="evenodd" d="M10.6778 0C11.5752 0 12.3462 0.619461 12.5151 1.47616L12.5901 1.85711C12.8852 3.35449 14.4787 4.24869 15.9605 3.74841L16.3376 3.62108C17.1854 3.33486 18.1229 3.67411 18.5715 4.42949L19.2493 5.57045C19.698 6.32586 19.5315 7.28456 18.8526 7.85501L18.5507 8.10871C17.364 9.10581 17.364 10.8942 18.5507 11.8913L18.8526 12.1449C19.5315 12.7154 19.698 13.6741 19.2493 14.4295L18.5716 15.5705C18.1229 16.3259 17.1854 16.6651 16.3375 16.3789L15.9606 16.2515C14.4787 15.7512 12.8852 16.6454 12.5901 18.1429L12.5151 18.5238C12.3462 19.3805 11.5752 20 10.6778 20H9.32222C8.42482 20 7.65377 19.3805 7.48493 18.5239L7.4098 18.1427C7.11467 16.6454 5.52114 15.7512 4.03937 16.2515L3.66246 16.3788C2.81468 16.6651 1.8772 16.3258 1.42845 15.5704L0.750713 14.4295C0.301984 13.6741 0.46843 12.7154 1.14735 12.1449L1.44933 11.8913C2.63598 10.8941 2.63598 9.10581 1.44933 8.10876L1.14735 7.85502C0.46843 7.28456 0.301985 6.32588 0.750713 5.57049L1.42848 4.42952C1.87721 3.67412 2.81467 3.33487 3.66243 3.6211L4.03945 3.7484C5.52119 4.24869 7.11467 3.35455 7.4098 1.85721L7.48492 1.47609C7.65377 0.619426 8.42473 0 9.32222 0H10.6778ZM10 12.8571C11.574 12.8571 12.85 11.5779 12.85 10C12.85 8.422 11.574 7.14285 10 7.14285C8.42594 7.14285 7.14998 8.422 7.14998 10C7.14998 11.5779 8.42594 12.8571 10 12.8571Z" fill="#1C1D1E"/>
</svg>
