<svg width="20" height="20" viewBox="0 0 20 20" fill="none" xmlns="http://www.w3.org/2000/svg">
<path fill-rule="evenodd" clip-rule="evenodd" d="M10.0002 1.24691V3.68547H19.9106V1.24691H10.0002Z" fill="#1C1D1E"/>
<path d="M2.46832 1.24691H0V3.70998H2.46832V1.24691Z" fill="#1C1D1E"/>
<path fill-rule="evenodd" clip-rule="evenodd" d="M0 8.72836L2.76572e-07 11.2068H6.26403V8.72836H0Z" fill="#1C1D1E"/>
<path fill-rule="evenodd" clip-rule="evenodd" d="M13.7503 8.72836V11.1957H19.9844V8.72836H13.7503Z" fill="#1C1D1E"/>
<path d="M10.024 16.2098H0V18.6567H10.024V16.2098Z" fill="#1C1D1E"/>
<path d="M20 16.2098H17.5004V18.6546H20V16.2098Z" fill="#1C1D1E"/>
<path fill-rule="evenodd" clip-rule="evenodd" d="M13.7103 20C15.069 20 16.2199 18.9752 16.2199 17.655C16.2199 16.3349 15.069 14.9629 13.7103 14.9629C12.3517 14.9629 11.3056 16.1613 11.3056 17.4815C11.3056 18.8016 12.3517 20 13.7103 20Z" fill="#1C1D1E"/>
<path fill-rule="evenodd" clip-rule="evenodd" d="M9.88273 12.4607C11.1986 12.4607 12.5113 11.1919 12.5113 9.87177C12.5113 8.55163 11.1986 7.48145 9.88273 7.48145C8.56688 7.48145 7.50017 8.55163 7.50017 9.87177C7.50017 11.1919 8.56688 12.4607 9.88273 12.4607Z" fill="#1C1D1E"/>
<path fill-rule="evenodd" clip-rule="evenodd" d="M6.32003 4.96389C7.64347 4.96389 8.77813 3.71046 8.77813 2.39032C8.77813 1.07018 7.46983 0 6.14639 0C4.82295 0 3.75009 1.07018 3.75009 2.39032C3.75009 3.71046 4.99659 4.96389 6.32003 4.96389Z" fill="#1C1D1E"/>
</svg>
