<svg width="20" height="20" viewBox="0 0 20 20" fill="none" xmlns="http://www.w3.org/2000/svg">
<path d="M0 16.26C0 17.3 0.366667 18.18 1.1 18.9C1.83333 19.62 2.72 19.9867 3.76 20H16.26C17.2867 20 18.1667 19.6333 18.9 18.9C19.6333 18.1667 20 17.2867 20 16.26V3.76C20 2.94667 19.7667 2.22 19.3 1.58C18.8333 0.94 18.2333 0.493333 17.5 0.24V1.88C17.5 2.4 17.32 2.84667 16.96 3.22C16.6 3.59333 16.1533 3.77333 15.62 3.76C15.0867 3.74667 14.6467 3.56667 14.3 3.22C13.9533 2.87333 13.7733 2.42667 13.76 1.88V0H6.26V1.88C6.26 2.4 6.07333 2.84667 5.7 3.22C5.32667 3.59333 4.88667 3.77333 4.38 3.76C3.87333 3.74667 3.42667 3.56667 3.04 3.22C2.65333 2.87333 2.47333 2.42667 2.5 1.88V0.24C1.76667 0.506667 1.16667 0.953333 0.7 1.58C0.233333 2.20667 0 2.93333 0 3.76V16.26ZM2.5 16.26V6.26H17.5V16.26C17.5 16.6067 17.38 16.9 17.14 17.14C16.9 17.38 16.6067 17.5 16.26 17.5H3.76C3.41333 17.5 3.11333 17.38 2.86 17.14C2.60667 16.9 2.48667 16.6067 2.5 16.26ZM3.76 1.88C3.76 2.05333 3.82 2.2 3.94 2.32C4.06 2.44 4.20667 2.5 4.38 2.5C4.55333 2.5 4.7 2.44 4.82 2.32C4.94 2.2 5 2.05333 5 1.88V0H3.76V1.88ZM5 15H7.5V12.5H5V15ZM5 11.26H7.5V8.76H5V11.26ZM8.76 15H11.26V12.5H8.76V15ZM8.76 11.26H11.26V8.76H8.76V11.26ZM12.5 15H15V12.5H12.5V15ZM12.5 11.26H15V8.76H12.5V11.26ZM15 1.88C15 2.05333 15.06 2.2 15.18 2.32C15.3 2.44 15.4467 2.5 15.62 2.5C15.7933 2.5 15.94 2.44 16.06 2.32C16.18 2.2 16.2467 2.05333 16.26 1.88V0H15V1.88Z" fill="#1C1D1E"/>
</svg>
